<svg xmlns="http://www.w3.org/2000/svg" width="177" height="189" fill="none" viewBox="0 0 177 189">
  <path stroke="#7EE6DD" stroke-width="11" d="m42.024 44.251 82 88m-93.484-24.17 32-16m72.287-54.131-32 31"/>
  <circle cx="86" cy="91" r="45" fill="#7EE6DD"/>
  <circle cx="33" cy="28" r="22" stroke="#F3F3F3" stroke-width="10"/>
  <circle cx="17.5" cy="114.5" r="13" stroke="#7EE6DD" stroke-width="9"/>
  <circle cx="143.5" cy="28.5" r="13" stroke="#7EE6DD" stroke-width="9"/>
  <circle cx="143" cy="155" r="29" stroke="#F3F3F3" stroke-width="10"/>
  <circle cx="86" cy="91" r="37" fill="#132F5E"/>
  <path stroke="#F3F3F3" stroke-linecap="round" stroke-linejoin="round" stroke-width="2" d="m150 148 7 7-7 7m-14 0-7-7 7-7m10-4-6 22"/>
  <path stroke="#F3F3F3" stroke-linecap="round" stroke-linejoin="round" stroke-width="1.5" d="M33 34v-5.25m0 0c.506 0 1.01-.063 1.5-.189m-1.5.189a6.01 6.01 0 0 1-1.5-.189m3.75 7.478a12.061 12.061 0 0 1-4.5 0m3.75 2.383c-.997.104-2.003.104-3 0M35.25 34v-.192c0-.983.658-1.823 1.508-2.316a7.5 7.5 0 1 0-7.517 0c.85.493 1.509 1.333 1.509 2.316V34"/>
  <path stroke="#7EE6DD" stroke-linecap="round" stroke-linejoin="round" stroke-width="3" d="M86 76.73A22.418 22.418 0 0 0 71 71c-2.63 0-5.155.45-7.5 1.28v35.625a22.462 22.462 0 0 1 7.5-1.28 22.42 22.42 0 0 1 15 5.73m0-35.625A22.415 22.415 0 0 1 101 71c2.63 0 5.155.45 7.5 1.28v35.625a22.46 22.46 0 0 0-7.5-1.28 22.414 22.414 0 0 0-15 5.73m0-35.625v35.625"/>
  <path stroke="#7EE6DD" stroke-linecap="round" stroke-linejoin="round" stroke-width="3" d="M81 85c-2.381-1.935-5.468-3.004-8.667-3-1.52 0-2.978.236-4.333.67M91 85c2.381-1.935 5.468-3.004 8.667-3 1.519 0 2.978.236 4.333.67M81 92c-2.381-1.935-5.468-3.004-8.667-3-1.52 0-2.978.236-4.333.67M91 92c2.381-1.935 5.468-3.004 8.667-3 1.519 0 2.978.236 4.333.67M81 99c-2.381-1.935-5.468-3.004-8.667-3-1.52 0-2.978.236-4.333.67M91 99c2.381-1.935 5.468-3.004 8.667-3 1.519 0 2.978.236 4.333.67"/>
</svg>
