<svg xmlns="http://www.w3.org/2000/svg" width="399" height="106" fill="none" viewBox="0 0 399 106">
  <path fill="#132F5E" d="M22.003 78.497c-3.454 0-6.577-.592-9.37-1.775-2.744-1.182-4.92-2.886-6.529-5.11s-2.437-4.85-2.484-7.878h10.646c.142 2.034.852 3.643 2.13 4.826 1.325 1.183 3.123 1.775 5.394 1.775 2.319 0 4.14-.545 5.465-1.633 1.325-1.136 1.988-2.602 1.988-4.4 0-1.467-.45-2.674-1.35-3.62-.898-.947-2.034-1.68-3.406-2.2-1.325-.569-3.17-1.184-5.536-1.846-3.218-.946-5.844-1.87-7.879-2.768-1.987-.947-3.714-2.342-5.18-4.188-1.42-1.892-2.13-4.4-2.13-7.523 0-2.934.733-5.49 2.2-7.666s3.525-3.833 6.175-4.968c2.65-1.183 5.678-1.775 9.085-1.775 5.11 0 9.25 1.254 12.421 3.762 3.218 2.46 4.992 5.915 5.323 10.363h-10.93c-.095-1.704-.828-3.1-2.2-4.188-1.325-1.136-3.1-1.703-5.324-1.703-1.94 0-3.501.496-4.684 1.49-1.136.994-1.704 2.437-1.704 4.33 0 1.325.426 2.437 1.278 3.336.899.851 1.987 1.561 3.265 2.129 1.325.52 3.17 1.136 5.536 1.845 3.218.947 5.844 1.893 7.878 2.84 2.035.946 3.786 2.365 5.253 4.258 1.467 1.893 2.2 4.377 2.2 7.453 0 2.65-.686 5.11-2.058 7.381-1.372 2.272-3.383 4.093-6.033 5.466-2.65 1.324-5.797 1.987-9.44 1.987ZM56.879 46.84v19.022c0 1.325.308 2.295.923 2.91.662.568 1.75.852 3.265.852h4.613V78h-6.246c-8.375 0-12.563-4.07-12.563-12.208v-18.95h-4.684v-8.163h4.684v-9.724H56.88v9.724h8.801v8.162h-8.8Zm50.23-8.162V78H97.101v-4.968c-1.277 1.703-2.957 3.052-5.039 4.045-2.035.947-4.259 1.42-6.672 1.42-3.076 0-5.796-.639-8.162-1.916-2.366-1.325-4.235-3.242-5.607-5.75-1.325-2.555-1.988-5.583-1.988-9.085V38.68h9.937v21.648c0 3.123.78 5.536 2.342 7.24 1.562 1.656 3.691 2.484 6.388 2.484 2.745 0 4.898-.829 6.46-2.485 1.56-1.703 2.341-4.116 2.341-7.24V38.68h10.008Zm4.41 19.518c0-3.974.781-7.5 2.342-10.575 1.609-3.076 3.786-5.442 6.53-7.098 2.745-1.656 5.797-2.484 9.156-2.484 2.555 0 4.992.568 7.311 1.703 2.318 1.089 4.164 2.556 5.536 4.401V25.477h10.079V78h-10.079v-5.82c-1.23 1.94-2.957 3.501-5.181 4.684-2.224 1.183-4.803 1.775-7.737 1.775-3.312 0-6.34-.852-9.085-2.555-2.744-1.704-4.921-4.093-6.53-7.169-1.561-3.123-2.342-6.696-2.342-10.718Zm30.946.142c0-2.413-.473-4.471-1.42-6.175-.946-1.75-2.223-3.075-3.832-3.974a10.05 10.05 0 0 0-5.182-1.42c-1.845 0-3.548.45-5.11 1.349-1.561.899-2.839 2.224-3.833 3.974-.946 1.704-1.419 3.739-1.419 6.104 0 2.366.473 4.448 1.419 6.246.994 1.751 2.272 3.1 3.833 4.046 1.609.947 3.312 1.42 5.11 1.42 1.846 0 3.573-.45 5.182-1.349 1.609-.946 2.886-2.271 3.832-3.975.947-1.75 1.42-3.832 1.42-6.246Zm54.491-19.66-24.345 57.917h-10.575l8.517-19.59-15.757-38.327h11.143l10.15 27.468 10.292-27.468h10.575Zm30.625 13.911c2.791.52 5.086 1.917 6.884 4.188s2.698 4.874 2.698 7.807c0 2.65-.663 4.992-1.988 7.027-1.277 1.987-3.146 3.549-5.607 4.685-2.461 1.135-5.371 1.703-8.73 1.703h-21.364V28.458h20.441c3.36 0 6.246.544 8.659 1.633 2.461 1.088 4.306 2.602 5.537 4.542 1.277 1.94 1.916 4.14 1.916 6.601 0 2.886-.781 5.3-2.342 7.24-1.515 1.94-3.549 3.312-6.104 4.116Zm-18.17-3.69h9.085c2.366 0 4.187-.521 5.465-1.562 1.277-1.088 1.916-2.626 1.916-4.614 0-1.987-.639-3.525-1.916-4.613-1.278-1.088-3.099-1.633-5.465-1.633h-9.085V48.9Zm10.007 21.009c2.414 0 4.283-.568 5.607-1.704 1.373-1.135 2.059-2.744 2.059-4.826 0-2.13-.71-3.786-2.129-4.969-1.42-1.23-3.336-1.845-5.75-1.845h-9.794v13.344h10.007Zm40.285 8.73c-3.785 0-7.192-.828-10.22-2.484-3.029-1.704-5.418-4.093-7.169-7.17-1.704-3.075-2.555-6.624-2.555-10.646 0-4.022.875-7.57 2.626-10.646 1.798-3.076 4.235-5.442 7.31-7.098 3.076-1.703 6.507-2.555 10.292-2.555 3.786 0 7.216.852 10.292 2.555 3.075 1.656 5.489 4.022 7.239 7.098 1.799 3.076 2.698 6.624 2.698 10.646 0 4.022-.923 7.571-2.769 10.647-1.798 3.076-4.258 5.465-7.381 7.169-3.076 1.656-6.53 2.484-10.363 2.484Zm0-8.66a10.36 10.36 0 0 0 5.04-1.277c1.608-.899 2.886-2.224 3.832-3.975.947-1.75 1.42-3.88 1.42-6.388 0-3.738-.994-6.6-2.981-8.588-1.94-2.034-4.33-3.052-7.169-3.052-2.839 0-5.228 1.018-7.168 3.052-1.893 1.988-2.84 4.85-2.84 8.588 0 3.739.923 6.625 2.769 8.66 1.892 1.987 4.258 2.98 7.097 2.98Zm22.407-11.782c0-3.974.781-7.5 2.343-10.575 1.608-3.076 3.761-5.442 6.458-7.098 2.745-1.656 5.797-2.484 9.156-2.484 2.934 0 5.489.592 7.666 1.774 2.224 1.183 3.998 2.674 5.323 4.472v-5.607h10.008V78h-10.008v-5.75c-1.277 1.846-3.052 3.384-5.323 4.614-2.224 1.183-4.803 1.775-7.737 1.775-3.312 0-6.34-.852-9.085-2.555-2.697-1.704-4.85-4.093-6.458-7.169-1.562-3.123-2.343-6.696-2.343-10.718Zm30.946.142c0-2.413-.473-4.471-1.419-6.175-.947-1.75-2.224-3.075-3.833-3.974a10.048 10.048 0 0 0-5.181-1.42c-1.846 0-3.549.45-5.111 1.349-1.561.899-2.839 2.224-3.832 3.974-.947 1.704-1.42 3.739-1.42 6.104 0 2.366.473 4.448 1.42 6.246.993 1.751 2.271 3.1 3.832 4.046 1.609.947 3.313 1.42 5.111 1.42 1.845 0 3.572-.45 5.181-1.349 1.609-.946 2.886-2.271 3.833-3.975.946-1.75 1.419-3.832 1.419-6.246Zm26.811-13.556c1.277-2.082 2.933-3.715 4.968-4.898 2.082-1.182 4.448-1.774 7.098-1.774v10.434h-2.626c-3.123 0-5.489.733-7.098 2.2-1.562 1.467-2.342 4.022-2.342 7.665V78h-9.937V38.679h9.937v6.104Zm13.364 13.414c0-3.974.781-7.5 2.343-10.575 1.608-3.076 3.785-5.442 6.529-7.098 2.745-1.656 5.797-2.484 9.156-2.484 2.556 0 4.992.568 7.311 1.703 2.319 1.089 4.164 2.556 5.536 4.401V25.477h10.079V78h-10.079v-5.82c-1.23 1.94-2.957 3.501-5.181 4.684-2.224 1.183-4.803 1.775-7.737 1.775-3.312 0-6.34-.852-9.085-2.555-2.744-1.704-4.921-4.093-6.529-7.169-1.562-3.123-2.343-6.696-2.343-10.718Zm30.946.142c0-2.413-.473-4.471-1.419-6.175-.947-1.75-2.224-3.075-3.833-3.974a10.048 10.048 0 0 0-5.181-1.42c-1.846 0-3.549.45-5.111 1.349-1.561.899-2.839 2.224-3.832 3.974-.947 1.704-1.42 3.739-1.42 6.104 0 2.366.473 4.448 1.42 6.246.993 1.751 2.271 3.1 3.832 4.046 1.609.947 3.313 1.42 5.111 1.42 1.845 0 3.572-.45 5.181-1.349 1.609-.946 2.886-2.271 3.833-3.975.946-1.75 1.419-3.832 1.419-6.246Z"/>
</svg>
